<mxfile host="Electron" modified="2023-06-11T14:06:41.345Z" agent="Mozilla/5.0 (X11; Linux x86_64) AppleWebKit/537.36 (KHTML, like Gecko) draw.io/21.3.7 Chrome/112.0.5615.204 Electron/24.5.0 Safari/537.36" etag="0UWFOP-hViBKFjYOYXM5" version="21.3.7" type="device" pages="3">
  <diagram name="ER-Model" id="K68WFYx544NKHzGUATrE">
    <mxGraphModel dx="2490" dy="2073" grid="1" gridSize="10" guides="1" tooltips="1" connect="1" arrows="1" fold="1" page="1" pageScale="1" pageWidth="850" pageHeight="1100" math="0" shadow="0">
      <root>
        <mxCell id="0" />
        <mxCell id="1" parent="0" />
        <mxCell id="LPlbiNGyBh89_qNewVkw-8" value="" style="rounded=0;orthogonalLoop=1;jettySize=auto;html=1;endArrow=none;endFill=0;" parent="1" source="LPlbiNGyBh89_qNewVkw-1" target="LPlbiNGyBh89_qNewVkw-7" edge="1">
          <mxGeometry relative="1" as="geometry" />
        </mxCell>
        <mxCell id="LPlbiNGyBh89_qNewVkw-13" style="rounded=0;orthogonalLoop=1;jettySize=auto;html=1;endArrow=none;endFill=0;" parent="1" source="LPlbiNGyBh89_qNewVkw-1" target="LPlbiNGyBh89_qNewVkw-11" edge="1">
          <mxGeometry relative="1" as="geometry" />
        </mxCell>
        <mxCell id="LPlbiNGyBh89_qNewVkw-14" style="rounded=0;orthogonalLoop=1;jettySize=auto;html=1;endArrow=none;endFill=0;" parent="1" source="LPlbiNGyBh89_qNewVkw-1" target="LPlbiNGyBh89_qNewVkw-12" edge="1">
          <mxGeometry relative="1" as="geometry" />
        </mxCell>
        <mxCell id="LPlbiNGyBh89_qNewVkw-1" value="Pegawai" style="rounded=0;whiteSpace=wrap;html=1;" parent="1" vertex="1">
          <mxGeometry x="465" y="220" width="120" height="40" as="geometry" />
        </mxCell>
        <mxCell id="LPlbiNGyBh89_qNewVkw-7" value="jabatan" style="ellipse;whiteSpace=wrap;html=1;rounded=0;" parent="1" vertex="1">
          <mxGeometry x="650" y="330" width="120" height="40" as="geometry" />
        </mxCell>
        <mxCell id="LPlbiNGyBh89_qNewVkw-11" value="*nip" style="ellipse;whiteSpace=wrap;html=1;rounded=0;" parent="1" vertex="1">
          <mxGeometry x="470" y="330" width="120" height="40" as="geometry" />
        </mxCell>
        <mxCell id="LPlbiNGyBh89_qNewVkw-12" value="nama" style="ellipse;whiteSpace=wrap;html=1;rounded=0;" parent="1" vertex="1">
          <mxGeometry x="280" y="320" width="120" height="40" as="geometry" />
        </mxCell>
        <mxCell id="LPlbiNGyBh89_qNewVkw-17" style="rounded=0;orthogonalLoop=1;jettySize=auto;html=1;endArrow=none;endFill=0;" parent="1" source="LPlbiNGyBh89_qNewVkw-15" target="LPlbiNGyBh89_qNewVkw-16" edge="1">
          <mxGeometry relative="1" as="geometry" />
        </mxCell>
        <mxCell id="LPlbiNGyBh89_qNewVkw-20" style="rounded=0;orthogonalLoop=1;jettySize=auto;html=1;endArrow=none;endFill=0;" parent="1" source="LPlbiNGyBh89_qNewVkw-15" target="LPlbiNGyBh89_qNewVkw-19" edge="1">
          <mxGeometry relative="1" as="geometry" />
        </mxCell>
        <mxCell id="LPlbiNGyBh89_qNewVkw-21" style="rounded=0;orthogonalLoop=1;jettySize=auto;html=1;endArrow=none;endFill=0;" parent="1" source="LPlbiNGyBh89_qNewVkw-15" target="LPlbiNGyBh89_qNewVkw-18" edge="1">
          <mxGeometry relative="1" as="geometry" />
        </mxCell>
        <mxCell id="LPlbiNGyBh89_qNewVkw-68" style="rounded=0;orthogonalLoop=1;jettySize=auto;html=1;endArrow=none;endFill=0;" parent="1" source="LPlbiNGyBh89_qNewVkw-15" target="LPlbiNGyBh89_qNewVkw-1" edge="1">
          <mxGeometry relative="1" as="geometry" />
        </mxCell>
        <mxCell id="LPlbiNGyBh89_qNewVkw-69" value="&lt;font style=&quot;font-size: 20px;&quot;&gt;(1,N)&lt;/font&gt;" style="edgeLabel;html=1;align=center;verticalAlign=middle;resizable=0;points=[];" parent="LPlbiNGyBh89_qNewVkw-68" vertex="1" connectable="0">
          <mxGeometry x="0.3091" y="4" relative="1" as="geometry">
            <mxPoint as="offset" />
          </mxGeometry>
        </mxCell>
        <mxCell id="LPlbiNGyBh89_qNewVkw-15" value="berada di" style="rhombus;whiteSpace=wrap;html=1;" parent="1" vertex="1">
          <mxGeometry x="1040" y="150" width="160" height="40" as="geometry" />
        </mxCell>
        <mxCell id="LPlbiNGyBh89_qNewVkw-16" value="nip" style="ellipse;whiteSpace=wrap;html=1;rounded=0;" parent="1" vertex="1">
          <mxGeometry x="1190" y="250" width="120" height="40" as="geometry" />
        </mxCell>
        <mxCell id="LPlbiNGyBh89_qNewVkw-18" value="honor" style="ellipse;whiteSpace=wrap;html=1;rounded=0;" parent="1" vertex="1">
          <mxGeometry x="1250" y="170" width="120" height="40" as="geometry" />
        </mxCell>
        <mxCell id="LPlbiNGyBh89_qNewVkw-19" value="no_bagian" style="ellipse;whiteSpace=wrap;html=1;rounded=0;" parent="1" vertex="1">
          <mxGeometry x="1220" y="90" width="120" height="40" as="geometry" />
        </mxCell>
        <mxCell id="LPlbiNGyBh89_qNewVkw-24" style="rounded=0;orthogonalLoop=1;jettySize=auto;html=1;endArrow=none;endFill=0;" parent="1" source="LPlbiNGyBh89_qNewVkw-22" target="LPlbiNGyBh89_qNewVkw-23" edge="1">
          <mxGeometry relative="1" as="geometry" />
        </mxCell>
        <mxCell id="LPlbiNGyBh89_qNewVkw-27" style="rounded=0;orthogonalLoop=1;jettySize=auto;html=1;endArrow=none;endFill=0;" parent="1" source="LPlbiNGyBh89_qNewVkw-22" target="LPlbiNGyBh89_qNewVkw-26" edge="1">
          <mxGeometry relative="1" as="geometry" />
        </mxCell>
        <mxCell id="LPlbiNGyBh89_qNewVkw-28" style="rounded=0;orthogonalLoop=1;jettySize=auto;html=1;endArrow=none;endFill=0;" parent="1" source="LPlbiNGyBh89_qNewVkw-22" target="LPlbiNGyBh89_qNewVkw-25" edge="1">
          <mxGeometry relative="1" as="geometry" />
        </mxCell>
        <mxCell id="LPlbiNGyBh89_qNewVkw-66" style="rounded=0;orthogonalLoop=1;jettySize=auto;html=1;endArrow=none;endFill=0;" parent="1" source="LPlbiNGyBh89_qNewVkw-22" target="LPlbiNGyBh89_qNewVkw-15" edge="1">
          <mxGeometry relative="1" as="geometry" />
        </mxCell>
        <mxCell id="LPlbiNGyBh89_qNewVkw-67" value="&lt;font style=&quot;font-size: 20px;&quot;&gt;(1,1)&lt;/font&gt;" style="edgeLabel;html=1;align=center;verticalAlign=middle;resizable=0;points=[];" parent="LPlbiNGyBh89_qNewVkw-66" vertex="1" connectable="0">
          <mxGeometry x="-0.2837" y="4" relative="1" as="geometry">
            <mxPoint as="offset" />
          </mxGeometry>
        </mxCell>
        <mxCell id="LPlbiNGyBh89_qNewVkw-71" style="rounded=0;orthogonalLoop=1;jettySize=auto;html=1;endArrow=none;endFill=0;" parent="1" source="LPlbiNGyBh89_qNewVkw-22" target="LPlbiNGyBh89_qNewVkw-29" edge="1">
          <mxGeometry relative="1" as="geometry" />
        </mxCell>
        <mxCell id="LPlbiNGyBh89_qNewVkw-72" value="&lt;font style=&quot;font-size: 20px;&quot;&gt;(1,1)&lt;/font&gt;" style="edgeLabel;html=1;align=center;verticalAlign=middle;resizable=0;points=[];" parent="LPlbiNGyBh89_qNewVkw-71" vertex="1" connectable="0">
          <mxGeometry x="-0.341" y="-4" relative="1" as="geometry">
            <mxPoint y="1" as="offset" />
          </mxGeometry>
        </mxCell>
        <mxCell id="LPlbiNGyBh89_qNewVkw-22" value="bagian" style="rounded=0;whiteSpace=wrap;html=1;" parent="1" vertex="1">
          <mxGeometry x="1060" y="-170" width="120" height="40" as="geometry" />
        </mxCell>
        <mxCell id="LPlbiNGyBh89_qNewVkw-23" value="*no_bagian" style="ellipse;whiteSpace=wrap;html=1;rounded=0;" parent="1" vertex="1">
          <mxGeometry x="1180" y="-270" width="120" height="40" as="geometry" />
        </mxCell>
        <mxCell id="LPlbiNGyBh89_qNewVkw-25" value="nama_bagian" style="ellipse;whiteSpace=wrap;html=1;rounded=0;" parent="1" vertex="1">
          <mxGeometry x="1210" y="-90" width="120" height="40" as="geometry" />
        </mxCell>
        <mxCell id="LPlbiNGyBh89_qNewVkw-26" value="lokasi_bagian" style="ellipse;whiteSpace=wrap;html=1;rounded=0;" parent="1" vertex="1">
          <mxGeometry x="1260" y="-170" width="120" height="40" as="geometry" />
        </mxCell>
        <mxCell id="LPlbiNGyBh89_qNewVkw-31" style="rounded=0;orthogonalLoop=1;jettySize=auto;html=1;endArrow=none;endFill=0;" parent="1" source="LPlbiNGyBh89_qNewVkw-29" target="LPlbiNGyBh89_qNewVkw-30" edge="1">
          <mxGeometry relative="1" as="geometry" />
        </mxCell>
        <mxCell id="LPlbiNGyBh89_qNewVkw-33" style="rounded=0;orthogonalLoop=1;jettySize=auto;html=1;endArrow=none;endFill=0;" parent="1" source="LPlbiNGyBh89_qNewVkw-29" target="LPlbiNGyBh89_qNewVkw-32" edge="1">
          <mxGeometry relative="1" as="geometry" />
        </mxCell>
        <mxCell id="LPlbiNGyBh89_qNewVkw-73" style="rounded=0;orthogonalLoop=1;jettySize=auto;html=1;endArrow=none;endFill=0;" parent="1" source="LPlbiNGyBh89_qNewVkw-29" target="LPlbiNGyBh89_qNewVkw-1" edge="1">
          <mxGeometry relative="1" as="geometry" />
        </mxCell>
        <mxCell id="LPlbiNGyBh89_qNewVkw-74" value="&lt;font style=&quot;font-size: 20px;&quot;&gt;(0,1)&lt;/font&gt;" style="edgeLabel;html=1;align=center;verticalAlign=middle;resizable=0;points=[];" parent="LPlbiNGyBh89_qNewVkw-73" vertex="1" connectable="0">
          <mxGeometry x="0.3341" y="1" relative="1" as="geometry">
            <mxPoint y="1" as="offset" />
          </mxGeometry>
        </mxCell>
        <mxCell id="LPlbiNGyBh89_qNewVkw-29" value="mengepalai" style="rhombus;whiteSpace=wrap;html=1;" parent="1" vertex="1">
          <mxGeometry x="790" y="80" width="160" height="40" as="geometry" />
        </mxCell>
        <mxCell id="LPlbiNGyBh89_qNewVkw-30" value="no_bagian" style="ellipse;whiteSpace=wrap;html=1;rounded=0;" parent="1" vertex="1">
          <mxGeometry x="700" y="30" width="120" height="40" as="geometry" />
        </mxCell>
        <mxCell id="LPlbiNGyBh89_qNewVkw-32" value="nip" style="ellipse;whiteSpace=wrap;html=1;rounded=0;" parent="1" vertex="1">
          <mxGeometry x="830" y="-70" width="120" height="40" as="geometry" />
        </mxCell>
        <mxCell id="LPlbiNGyBh89_qNewVkw-36" style="rounded=0;orthogonalLoop=1;jettySize=auto;html=1;endArrow=none;endFill=0;" parent="1" source="LPlbiNGyBh89_qNewVkw-34" target="LPlbiNGyBh89_qNewVkw-35" edge="1">
          <mxGeometry relative="1" as="geometry" />
        </mxCell>
        <mxCell id="LPlbiNGyBh89_qNewVkw-38" style="rounded=0;orthogonalLoop=1;jettySize=auto;html=1;endArrow=none;endFill=0;" parent="1" source="LPlbiNGyBh89_qNewVkw-34" target="LPlbiNGyBh89_qNewVkw-37" edge="1">
          <mxGeometry relative="1" as="geometry" />
        </mxCell>
        <mxCell id="LPlbiNGyBh89_qNewVkw-55" style="rounded=0;orthogonalLoop=1;jettySize=auto;html=1;endArrow=none;endFill=0;" parent="1" source="LPlbiNGyBh89_qNewVkw-34" target="LPlbiNGyBh89_qNewVkw-22" edge="1">
          <mxGeometry relative="1" as="geometry" />
        </mxCell>
        <mxCell id="LPlbiNGyBh89_qNewVkw-56" value="&lt;font style=&quot;font-size: 20px;&quot;&gt;(1,N)&lt;/font&gt;" style="edgeLabel;html=1;align=center;verticalAlign=middle;resizable=0;points=[];" parent="LPlbiNGyBh89_qNewVkw-55" vertex="1" connectable="0">
          <mxGeometry x="0.5251" y="2" relative="1" as="geometry">
            <mxPoint as="offset" />
          </mxGeometry>
        </mxCell>
        <mxCell id="LPlbiNGyBh89_qNewVkw-34" value="menangani" style="rhombus;whiteSpace=wrap;html=1;" parent="1" vertex="1">
          <mxGeometry x="660" y="-270" width="160" height="40" as="geometry" />
        </mxCell>
        <mxCell id="LPlbiNGyBh89_qNewVkw-35" value="no_bagian" style="ellipse;whiteSpace=wrap;html=1;rounded=0;" parent="1" vertex="1">
          <mxGeometry x="800" y="-340" width="120" height="40" as="geometry" />
        </mxCell>
        <mxCell id="LPlbiNGyBh89_qNewVkw-37" value="no_proyek" style="ellipse;whiteSpace=wrap;html=1;rounded=0;" parent="1" vertex="1">
          <mxGeometry x="540" y="-330" width="120" height="40" as="geometry" />
        </mxCell>
        <mxCell id="LPlbiNGyBh89_qNewVkw-41" style="rounded=0;orthogonalLoop=1;jettySize=auto;html=1;startArrow=none;startFill=0;endArrow=none;endFill=0;" parent="1" source="LPlbiNGyBh89_qNewVkw-39" target="LPlbiNGyBh89_qNewVkw-40" edge="1">
          <mxGeometry relative="1" as="geometry" />
        </mxCell>
        <mxCell id="LPlbiNGyBh89_qNewVkw-43" style="rounded=0;orthogonalLoop=1;jettySize=auto;html=1;startArrow=none;startFill=0;endArrow=none;endFill=0;" parent="1" source="LPlbiNGyBh89_qNewVkw-39" target="LPlbiNGyBh89_qNewVkw-42" edge="1">
          <mxGeometry relative="1" as="geometry" />
        </mxCell>
        <mxCell id="LPlbiNGyBh89_qNewVkw-45" style="rounded=0;orthogonalLoop=1;jettySize=auto;html=1;endArrow=none;endFill=0;" parent="1" source="LPlbiNGyBh89_qNewVkw-39" target="LPlbiNGyBh89_qNewVkw-44" edge="1">
          <mxGeometry relative="1" as="geometry" />
        </mxCell>
        <mxCell id="LPlbiNGyBh89_qNewVkw-47" style="rounded=0;orthogonalLoop=1;jettySize=auto;html=1;startArrow=none;startFill=0;endArrow=none;endFill=0;" parent="1" source="LPlbiNGyBh89_qNewVkw-39" target="LPlbiNGyBh89_qNewVkw-46" edge="1">
          <mxGeometry relative="1" as="geometry" />
        </mxCell>
        <mxCell id="LPlbiNGyBh89_qNewVkw-53" style="rounded=0;orthogonalLoop=1;jettySize=auto;html=1;endArrow=none;endFill=0;" parent="1" source="LPlbiNGyBh89_qNewVkw-39" target="LPlbiNGyBh89_qNewVkw-34" edge="1">
          <mxGeometry relative="1" as="geometry" />
        </mxCell>
        <mxCell id="LPlbiNGyBh89_qNewVkw-54" value="&lt;font style=&quot;font-size: 20px;&quot;&gt;(1,N)&lt;/font&gt;" style="edgeLabel;html=1;align=center;verticalAlign=middle;resizable=0;points=[];" parent="LPlbiNGyBh89_qNewVkw-53" vertex="1" connectable="0">
          <mxGeometry x="-0.2911" y="1" relative="1" as="geometry">
            <mxPoint as="offset" />
          </mxGeometry>
        </mxCell>
        <mxCell id="LPlbiNGyBh89_qNewVkw-62" style="rounded=0;orthogonalLoop=1;jettySize=auto;html=1;endArrow=none;endFill=0;" parent="1" source="LPlbiNGyBh89_qNewVkw-39" target="LPlbiNGyBh89_qNewVkw-57" edge="1">
          <mxGeometry relative="1" as="geometry" />
        </mxCell>
        <mxCell id="LPlbiNGyBh89_qNewVkw-63" value="&lt;font style=&quot;font-size: 20px;&quot;&gt;(1,N)&lt;/font&gt;" style="edgeLabel;html=1;align=center;verticalAlign=middle;resizable=0;points=[];" parent="LPlbiNGyBh89_qNewVkw-62" vertex="1" connectable="0">
          <mxGeometry x="-0.3862" y="-4" relative="1" as="geometry">
            <mxPoint as="offset" />
          </mxGeometry>
        </mxCell>
        <mxCell id="LPlbiNGyBh89_qNewVkw-76" style="rounded=0;orthogonalLoop=1;jettySize=auto;html=1;endArrow=none;endFill=0;" parent="1" source="LPlbiNGyBh89_qNewVkw-39" target="LPlbiNGyBh89_qNewVkw-48" edge="1">
          <mxGeometry relative="1" as="geometry" />
        </mxCell>
        <mxCell id="LPlbiNGyBh89_qNewVkw-77" value="&lt;font style=&quot;font-size: 20px;&quot;&gt;(1,1)&lt;/font&gt;" style="edgeLabel;html=1;align=center;verticalAlign=middle;resizable=0;points=[];" parent="LPlbiNGyBh89_qNewVkw-76" vertex="1" connectable="0">
          <mxGeometry x="-0.3951" relative="1" as="geometry">
            <mxPoint as="offset" />
          </mxGeometry>
        </mxCell>
        <mxCell id="LPlbiNGyBh89_qNewVkw-39" value="Proyek" style="rounded=0;whiteSpace=wrap;html=1;" parent="1" vertex="1">
          <mxGeometry x="160" y="-200" width="120" height="40" as="geometry" />
        </mxCell>
        <mxCell id="LPlbiNGyBh89_qNewVkw-40" value="*no_proyek" style="ellipse;whiteSpace=wrap;html=1;rounded=0;" parent="1" vertex="1">
          <mxGeometry x="-40" y="-280" width="120" height="40" as="geometry" />
        </mxCell>
        <mxCell id="LPlbiNGyBh89_qNewVkw-42" value="nama_proyek" style="ellipse;whiteSpace=wrap;html=1;rounded=0;" parent="1" vertex="1">
          <mxGeometry x="190" y="-340" width="120" height="40" as="geometry" />
        </mxCell>
        <mxCell id="LPlbiNGyBh89_qNewVkw-44" value="lokasi_proyek" style="ellipse;whiteSpace=wrap;html=1;rounded=0;" parent="1" vertex="1">
          <mxGeometry x="320" y="-290" width="120" height="40" as="geometry" />
        </mxCell>
        <mxCell id="LPlbiNGyBh89_qNewVkw-46" value="tanggal_proyek" style="ellipse;whiteSpace=wrap;html=1;rounded=0;" parent="1" vertex="1">
          <mxGeometry x="-40" y="-190" width="120" height="40" as="geometry" />
        </mxCell>
        <mxCell id="LPlbiNGyBh89_qNewVkw-50" style="rounded=0;orthogonalLoop=1;jettySize=auto;html=1;endArrow=none;endFill=0;" parent="1" source="LPlbiNGyBh89_qNewVkw-48" target="LPlbiNGyBh89_qNewVkw-49" edge="1">
          <mxGeometry relative="1" as="geometry" />
        </mxCell>
        <mxCell id="LPlbiNGyBh89_qNewVkw-52" style="rounded=0;orthogonalLoop=1;jettySize=auto;html=1;endArrow=none;endFill=0;" parent="1" source="LPlbiNGyBh89_qNewVkw-48" target="LPlbiNGyBh89_qNewVkw-51" edge="1">
          <mxGeometry relative="1" as="geometry" />
        </mxCell>
        <mxCell id="LPlbiNGyBh89_qNewVkw-78" style="rounded=0;orthogonalLoop=1;jettySize=auto;html=1;endArrow=none;endFill=0;" parent="1" source="LPlbiNGyBh89_qNewVkw-48" target="LPlbiNGyBh89_qNewVkw-1" edge="1">
          <mxGeometry relative="1" as="geometry" />
        </mxCell>
        <mxCell id="LPlbiNGyBh89_qNewVkw-79" value="&lt;font style=&quot;font-size: 20px;&quot;&gt;(0,1)&lt;/font&gt;" style="edgeLabel;html=1;align=center;verticalAlign=middle;resizable=0;points=[];" parent="LPlbiNGyBh89_qNewVkw-78" vertex="1" connectable="0">
          <mxGeometry x="0.363" y="-2" relative="1" as="geometry">
            <mxPoint as="offset" />
          </mxGeometry>
        </mxCell>
        <mxCell id="LPlbiNGyBh89_qNewVkw-48" value="memimpin" style="rhombus;whiteSpace=wrap;html=1;" parent="1" vertex="1">
          <mxGeometry x="295" y="-30" width="160" height="40" as="geometry" />
        </mxCell>
        <mxCell id="LPlbiNGyBh89_qNewVkw-49" value="nip" style="ellipse;whiteSpace=wrap;html=1;rounded=0;" parent="1" vertex="1">
          <mxGeometry x="465" y="-100" width="120" height="40" as="geometry" />
        </mxCell>
        <mxCell id="LPlbiNGyBh89_qNewVkw-51" value="no_proyek" style="ellipse;whiteSpace=wrap;html=1;rounded=0;" parent="1" vertex="1">
          <mxGeometry x="175" y="70" width="120" height="40" as="geometry" />
        </mxCell>
        <mxCell id="LPlbiNGyBh89_qNewVkw-59" style="rounded=0;orthogonalLoop=1;jettySize=auto;html=1;startArrow=none;startFill=0;endArrow=none;endFill=0;" parent="1" source="LPlbiNGyBh89_qNewVkw-57" target="LPlbiNGyBh89_qNewVkw-58" edge="1">
          <mxGeometry relative="1" as="geometry" />
        </mxCell>
        <mxCell id="LPlbiNGyBh89_qNewVkw-61" style="rounded=0;orthogonalLoop=1;jettySize=auto;html=1;startArrow=none;startFill=0;endArrow=none;endFill=0;" parent="1" source="LPlbiNGyBh89_qNewVkw-57" target="LPlbiNGyBh89_qNewVkw-60" edge="1">
          <mxGeometry relative="1" as="geometry" />
        </mxCell>
        <mxCell id="LPlbiNGyBh89_qNewVkw-64" style="rounded=0;orthogonalLoop=1;jettySize=auto;html=1;endArrow=none;endFill=0;" parent="1" source="LPlbiNGyBh89_qNewVkw-57" target="LPlbiNGyBh89_qNewVkw-1" edge="1">
          <mxGeometry relative="1" as="geometry" />
        </mxCell>
        <mxCell id="LPlbiNGyBh89_qNewVkw-65" value="&lt;font style=&quot;font-size: 20px;&quot;&gt;(0,N)&lt;/font&gt;" style="edgeLabel;html=1;align=center;verticalAlign=middle;resizable=0;points=[];" parent="LPlbiNGyBh89_qNewVkw-64" vertex="1" connectable="0">
          <mxGeometry x="0.4405" y="1" relative="1" as="geometry">
            <mxPoint as="offset" />
          </mxGeometry>
        </mxCell>
        <mxCell id="LPlbiNGyBh89_qNewVkw-57" value="di kerjakan" style="rhombus;whiteSpace=wrap;html=1;" parent="1" vertex="1">
          <mxGeometry x="-140" y="70" width="160" height="40" as="geometry" />
        </mxCell>
        <mxCell id="LPlbiNGyBh89_qNewVkw-58" value="no_proyek" style="ellipse;whiteSpace=wrap;html=1;rounded=0;" parent="1" vertex="1">
          <mxGeometry x="-270" y="-10" width="120" height="40" as="geometry" />
        </mxCell>
        <mxCell id="LPlbiNGyBh89_qNewVkw-60" value="nip" style="ellipse;whiteSpace=wrap;html=1;rounded=0;" parent="1" vertex="1">
          <mxGeometry x="-230" y="170" width="120" height="40" as="geometry" />
        </mxCell>
      </root>
    </mxGraphModel>
  </diagram>
  <diagram id="GbH912qU25Y64D2h6CVo" name="CDM">
    <mxGraphModel dx="1752" dy="535" grid="1" gridSize="10" guides="1" tooltips="1" connect="1" arrows="1" fold="1" page="1" pageScale="1" pageWidth="850" pageHeight="1100" math="0" shadow="0">
      <root>
        <mxCell id="0" />
        <mxCell id="1" parent="0" />
        <mxCell id="xBo47r-oXRucLtAjuDVi-22" value="Bagian" style="swimlane;fontStyle=0;childLayout=stackLayout;horizontal=1;startSize=30;horizontalStack=0;resizeParent=1;resizeParentMax=0;resizeLast=0;collapsible=1;marginBottom=0;whiteSpace=wrap;html=1;" vertex="1" parent="1">
          <mxGeometry x="110" y="110" width="140" height="120" as="geometry" />
        </mxCell>
        <mxCell id="xBo47r-oXRucLtAjuDVi-23" value="*no_bagian" style="text;strokeColor=none;fillColor=none;align=left;verticalAlign=middle;spacingLeft=4;spacingRight=4;overflow=hidden;points=[[0,0.5],[1,0.5]];portConstraint=eastwest;rotatable=0;whiteSpace=wrap;html=1;" vertex="1" parent="xBo47r-oXRucLtAjuDVi-22">
          <mxGeometry y="30" width="140" height="30" as="geometry" />
        </mxCell>
        <mxCell id="xBo47r-oXRucLtAjuDVi-24" value="nama_bagian" style="text;strokeColor=none;fillColor=none;align=left;verticalAlign=middle;spacingLeft=4;spacingRight=4;overflow=hidden;points=[[0,0.5],[1,0.5]];portConstraint=eastwest;rotatable=0;whiteSpace=wrap;html=1;" vertex="1" parent="xBo47r-oXRucLtAjuDVi-22">
          <mxGeometry y="60" width="140" height="30" as="geometry" />
        </mxCell>
        <mxCell id="xBo47r-oXRucLtAjuDVi-25" value="lokasi_bagian" style="text;strokeColor=none;fillColor=none;align=left;verticalAlign=middle;spacingLeft=4;spacingRight=4;overflow=hidden;points=[[0,0.5],[1,0.5]];portConstraint=eastwest;rotatable=0;whiteSpace=wrap;html=1;" vertex="1" parent="xBo47r-oXRucLtAjuDVi-22">
          <mxGeometry y="90" width="140" height="30" as="geometry" />
        </mxCell>
        <mxCell id="xBo47r-oXRucLtAjuDVi-26" value="Proyek" style="swimlane;fontStyle=0;childLayout=stackLayout;horizontal=1;startSize=30;horizontalStack=0;resizeParent=1;resizeParentMax=0;resizeLast=0;collapsible=1;marginBottom=0;whiteSpace=wrap;html=1;" vertex="1" parent="1">
          <mxGeometry x="580" y="95" width="140" height="150" as="geometry" />
        </mxCell>
        <mxCell id="xBo47r-oXRucLtAjuDVi-27" value="*no_proyek" style="text;strokeColor=none;fillColor=none;align=left;verticalAlign=middle;spacingLeft=4;spacingRight=4;overflow=hidden;points=[[0,0.5],[1,0.5]];portConstraint=eastwest;rotatable=0;whiteSpace=wrap;html=1;" vertex="1" parent="xBo47r-oXRucLtAjuDVi-26">
          <mxGeometry y="30" width="140" height="30" as="geometry" />
        </mxCell>
        <mxCell id="xBo47r-oXRucLtAjuDVi-28" value="nama_proyek" style="text;strokeColor=none;fillColor=none;align=left;verticalAlign=middle;spacingLeft=4;spacingRight=4;overflow=hidden;points=[[0,0.5],[1,0.5]];portConstraint=eastwest;rotatable=0;whiteSpace=wrap;html=1;" vertex="1" parent="xBo47r-oXRucLtAjuDVi-26">
          <mxGeometry y="60" width="140" height="30" as="geometry" />
        </mxCell>
        <mxCell id="xBo47r-oXRucLtAjuDVi-29" value="tanggal_proyek" style="text;strokeColor=none;fillColor=none;align=left;verticalAlign=middle;spacingLeft=4;spacingRight=4;overflow=hidden;points=[[0,0.5],[1,0.5]];portConstraint=eastwest;rotatable=0;whiteSpace=wrap;html=1;" vertex="1" parent="xBo47r-oXRucLtAjuDVi-26">
          <mxGeometry y="90" width="140" height="30" as="geometry" />
        </mxCell>
        <mxCell id="xBo47r-oXRucLtAjuDVi-34" value="lokasi_proyek" style="text;strokeColor=none;fillColor=none;align=left;verticalAlign=middle;spacingLeft=4;spacingRight=4;overflow=hidden;points=[[0,0.5],[1,0.5]];portConstraint=eastwest;rotatable=0;whiteSpace=wrap;html=1;" vertex="1" parent="xBo47r-oXRucLtAjuDVi-26">
          <mxGeometry y="120" width="140" height="30" as="geometry" />
        </mxCell>
        <mxCell id="xBo47r-oXRucLtAjuDVi-30" value="Pegawai" style="swimlane;fontStyle=0;childLayout=stackLayout;horizontal=1;startSize=30;horizontalStack=0;resizeParent=1;resizeParentMax=0;resizeLast=0;collapsible=1;marginBottom=0;whiteSpace=wrap;html=1;" vertex="1" parent="1">
          <mxGeometry x="110" y="310" width="140" height="150" as="geometry" />
        </mxCell>
        <mxCell id="xBo47r-oXRucLtAjuDVi-31" value="*nip" style="text;strokeColor=none;fillColor=none;align=left;verticalAlign=middle;spacingLeft=4;spacingRight=4;overflow=hidden;points=[[0,0.5],[1,0.5]];portConstraint=eastwest;rotatable=0;whiteSpace=wrap;html=1;" vertex="1" parent="xBo47r-oXRucLtAjuDVi-30">
          <mxGeometry y="30" width="140" height="30" as="geometry" />
        </mxCell>
        <mxCell id="xBo47r-oXRucLtAjuDVi-32" value="nama_pegawai" style="text;strokeColor=none;fillColor=none;align=left;verticalAlign=middle;spacingLeft=4;spacingRight=4;overflow=hidden;points=[[0,0.5],[1,0.5]];portConstraint=eastwest;rotatable=0;whiteSpace=wrap;html=1;" vertex="1" parent="xBo47r-oXRucLtAjuDVi-30">
          <mxGeometry y="60" width="140" height="30" as="geometry" />
        </mxCell>
        <mxCell id="xBo47r-oXRucLtAjuDVi-33" value="jabatan_pegawai" style="text;strokeColor=none;fillColor=none;align=left;verticalAlign=middle;spacingLeft=4;spacingRight=4;overflow=hidden;points=[[0,0.5],[1,0.5]];portConstraint=eastwest;rotatable=0;whiteSpace=wrap;html=1;" vertex="1" parent="xBo47r-oXRucLtAjuDVi-30">
          <mxGeometry y="90" width="140" height="30" as="geometry" />
        </mxCell>
        <mxCell id="xBo47r-oXRucLtAjuDVi-35" value="gaji_pokok" style="text;strokeColor=none;fillColor=none;align=left;verticalAlign=middle;spacingLeft=4;spacingRight=4;overflow=hidden;points=[[0,0.5],[1,0.5]];portConstraint=eastwest;rotatable=0;whiteSpace=wrap;html=1;" vertex="1" parent="xBo47r-oXRucLtAjuDVi-30">
          <mxGeometry y="120" width="140" height="30" as="geometry" />
        </mxCell>
        <mxCell id="xBo47r-oXRucLtAjuDVi-36" style="edgeStyle=orthogonalEdgeStyle;rounded=0;orthogonalLoop=1;jettySize=auto;html=1;endArrow=ERoneToMany;endFill=0;strokeWidth=1;startArrow=ERoneToMany;startFill=0;" edge="1" parent="1" source="xBo47r-oXRucLtAjuDVi-23" target="xBo47r-oXRucLtAjuDVi-27">
          <mxGeometry relative="1" as="geometry" />
        </mxCell>
        <mxCell id="xBo47r-oXRucLtAjuDVi-37" value="&lt;font style=&quot;font-size: 20px;&quot;&gt;Menangani&lt;/font&gt;" style="text;html=1;align=center;verticalAlign=middle;resizable=0;points=[];autosize=1;strokeColor=none;fillColor=none;" vertex="1" parent="1">
          <mxGeometry x="360" y="102" width="120" height="40" as="geometry" />
        </mxCell>
        <mxCell id="xBo47r-oXRucLtAjuDVi-38" style="edgeStyle=orthogonalEdgeStyle;rounded=0;orthogonalLoop=1;jettySize=auto;html=1;startArrow=ERone;startFill=0;endArrow=ERoneToMany;endFill=0;" edge="1" parent="1" source="xBo47r-oXRucLtAjuDVi-25" target="xBo47r-oXRucLtAjuDVi-31">
          <mxGeometry relative="1" as="geometry">
            <Array as="points">
              <mxPoint x="70" y="215" />
              <mxPoint x="70" y="355" />
            </Array>
          </mxGeometry>
        </mxCell>
        <mxCell id="xBo47r-oXRucLtAjuDVi-39" value="&lt;font style=&quot;font-size: 20px;&quot;&gt;Berada&lt;/font&gt;" style="text;html=1;align=center;verticalAlign=middle;resizable=0;points=[];autosize=1;strokeColor=none;fillColor=none;rotation=0;" vertex="1" parent="1">
          <mxGeometry x="-20" y="260" width="90" height="40" as="geometry" />
        </mxCell>
        <mxCell id="xBo47r-oXRucLtAjuDVi-40" style="edgeStyle=orthogonalEdgeStyle;rounded=0;orthogonalLoop=1;jettySize=auto;html=1;startArrow=ERone;startFill=0;endArrow=circle;endFill=0;sourcePerimeterSpacing=0;" edge="1" parent="1" source="xBo47r-oXRucLtAjuDVi-24" target="xBo47r-oXRucLtAjuDVi-31">
          <mxGeometry relative="1" as="geometry">
            <Array as="points">
              <mxPoint x="320" y="185" />
              <mxPoint x="320" y="355" />
            </Array>
          </mxGeometry>
        </mxCell>
        <mxCell id="xBo47r-oXRucLtAjuDVi-41" value="&lt;font style=&quot;font-size: 20px;&quot;&gt;Mengepalai&lt;/font&gt;" style="text;html=1;align=center;verticalAlign=middle;resizable=0;points=[];autosize=1;strokeColor=none;fillColor=none;rotation=0;" vertex="1" parent="1">
          <mxGeometry x="190" y="250" width="130" height="40" as="geometry" />
        </mxCell>
        <mxCell id="xBo47r-oXRucLtAjuDVi-43" style="edgeStyle=orthogonalEdgeStyle;rounded=0;orthogonalLoop=1;jettySize=auto;html=1;endArrow=circle;endFill=0;startArrow=ERone;startFill=0;" edge="1" parent="1" source="xBo47r-oXRucLtAjuDVi-28" target="xBo47r-oXRucLtAjuDVi-32">
          <mxGeometry relative="1" as="geometry">
            <Array as="points">
              <mxPoint x="360" y="170" />
              <mxPoint x="360" y="385" />
            </Array>
          </mxGeometry>
        </mxCell>
        <mxCell id="xBo47r-oXRucLtAjuDVi-44" value="&lt;font style=&quot;font-size: 20px;&quot;&gt;Memimpin&lt;/font&gt;" style="text;html=1;align=center;verticalAlign=middle;resizable=0;points=[];autosize=1;strokeColor=none;fillColor=none;" vertex="1" parent="1">
          <mxGeometry x="360" y="170" width="120" height="40" as="geometry" />
        </mxCell>
        <mxCell id="xBo47r-oXRucLtAjuDVi-45" style="edgeStyle=orthogonalEdgeStyle;rounded=0;orthogonalLoop=1;jettySize=auto;html=1;endArrow=ERzeroToMany;endFill=0;startArrow=ERoneToMany;startFill=0;" edge="1" parent="1" source="xBo47r-oXRucLtAjuDVi-34" target="xBo47r-oXRucLtAjuDVi-33">
          <mxGeometry relative="1" as="geometry">
            <Array as="points">
              <mxPoint x="400" y="230" />
              <mxPoint x="400" y="415" />
            </Array>
          </mxGeometry>
        </mxCell>
        <mxCell id="xBo47r-oXRucLtAjuDVi-46" value="&lt;font style=&quot;font-size: 20px;&quot;&gt;Dikerjakan&lt;/font&gt;" style="text;html=1;align=center;verticalAlign=middle;resizable=0;points=[];autosize=1;strokeColor=none;fillColor=none;" vertex="1" parent="1">
          <mxGeometry x="400" y="230" width="120" height="40" as="geometry" />
        </mxCell>
      </root>
    </mxGraphModel>
  </diagram>
  <diagram id="bX1q3o_62WMQr2mQJd9-" name="PDM">
    <mxGraphModel dx="902" dy="535" grid="1" gridSize="10" guides="1" tooltips="1" connect="1" arrows="1" fold="1" page="1" pageScale="1" pageWidth="850" pageHeight="1100" math="0" shadow="0">
      <root>
        <mxCell id="0" />
        <mxCell id="1" parent="0" />
        <mxCell id="Nm2OPy486o5KQccKr5IJ-1" value="Bagian" style="swimlane;fontStyle=0;childLayout=stackLayout;horizontal=1;startSize=30;horizontalStack=0;resizeParent=1;resizeParentMax=0;resizeLast=0;collapsible=1;marginBottom=0;whiteSpace=wrap;html=1;" vertex="1" parent="1">
          <mxGeometry x="110" y="110" width="140" height="150" as="geometry" />
        </mxCell>
        <mxCell id="Nm2OPy486o5KQccKr5IJ-2" value="*no_bagian" style="text;strokeColor=none;fillColor=none;align=left;verticalAlign=middle;spacingLeft=4;spacingRight=4;overflow=hidden;points=[[0,0.5],[1,0.5]];portConstraint=eastwest;rotatable=0;whiteSpace=wrap;html=1;" vertex="1" parent="Nm2OPy486o5KQccKr5IJ-1">
          <mxGeometry y="30" width="140" height="30" as="geometry" />
        </mxCell>
        <mxCell id="Nm2OPy486o5KQccKr5IJ-3" value="nama_bagian" style="text;strokeColor=none;fillColor=none;align=left;verticalAlign=middle;spacingLeft=4;spacingRight=4;overflow=hidden;points=[[0,0.5],[1,0.5]];portConstraint=eastwest;rotatable=0;whiteSpace=wrap;html=1;" vertex="1" parent="Nm2OPy486o5KQccKr5IJ-1">
          <mxGeometry y="60" width="140" height="30" as="geometry" />
        </mxCell>
        <mxCell id="Nm2OPy486o5KQccKr5IJ-4" value="lokasi_bagian" style="text;strokeColor=none;fillColor=none;align=left;verticalAlign=middle;spacingLeft=4;spacingRight=4;overflow=hidden;points=[[0,0.5],[1,0.5]];portConstraint=eastwest;rotatable=0;whiteSpace=wrap;html=1;" vertex="1" parent="Nm2OPy486o5KQccKr5IJ-1">
          <mxGeometry y="90" width="140" height="30" as="geometry" />
        </mxCell>
        <mxCell id="Nm2OPy486o5KQccKr5IJ-24" value="nip" style="text;strokeColor=none;fillColor=none;align=left;verticalAlign=middle;spacingLeft=4;spacingRight=4;overflow=hidden;points=[[0,0.5],[1,0.5]];portConstraint=eastwest;rotatable=0;whiteSpace=wrap;html=1;" vertex="1" parent="Nm2OPy486o5KQccKr5IJ-1">
          <mxGeometry y="120" width="140" height="30" as="geometry" />
        </mxCell>
        <mxCell id="Nm2OPy486o5KQccKr5IJ-5" value="Proyek" style="swimlane;fontStyle=0;childLayout=stackLayout;horizontal=1;startSize=30;horizontalStack=0;resizeParent=1;resizeParentMax=0;resizeLast=0;collapsible=1;marginBottom=0;whiteSpace=wrap;html=1;" vertex="1" parent="1">
          <mxGeometry x="580" y="95" width="140" height="180" as="geometry" />
        </mxCell>
        <mxCell id="Nm2OPy486o5KQccKr5IJ-6" value="*no_proyek" style="text;strokeColor=none;fillColor=none;align=left;verticalAlign=middle;spacingLeft=4;spacingRight=4;overflow=hidden;points=[[0,0.5],[1,0.5]];portConstraint=eastwest;rotatable=0;whiteSpace=wrap;html=1;" vertex="1" parent="Nm2OPy486o5KQccKr5IJ-5">
          <mxGeometry y="30" width="140" height="30" as="geometry" />
        </mxCell>
        <mxCell id="Nm2OPy486o5KQccKr5IJ-7" value="nama_proyek" style="text;strokeColor=none;fillColor=none;align=left;verticalAlign=middle;spacingLeft=4;spacingRight=4;overflow=hidden;points=[[0,0.5],[1,0.5]];portConstraint=eastwest;rotatable=0;whiteSpace=wrap;html=1;" vertex="1" parent="Nm2OPy486o5KQccKr5IJ-5">
          <mxGeometry y="60" width="140" height="30" as="geometry" />
        </mxCell>
        <mxCell id="Nm2OPy486o5KQccKr5IJ-8" value="tanggal_proyek" style="text;strokeColor=none;fillColor=none;align=left;verticalAlign=middle;spacingLeft=4;spacingRight=4;overflow=hidden;points=[[0,0.5],[1,0.5]];portConstraint=eastwest;rotatable=0;whiteSpace=wrap;html=1;" vertex="1" parent="Nm2OPy486o5KQccKr5IJ-5">
          <mxGeometry y="90" width="140" height="30" as="geometry" />
        </mxCell>
        <mxCell id="Nm2OPy486o5KQccKr5IJ-9" value="lokasi_proyek" style="text;strokeColor=none;fillColor=none;align=left;verticalAlign=middle;spacingLeft=4;spacingRight=4;overflow=hidden;points=[[0,0.5],[1,0.5]];portConstraint=eastwest;rotatable=0;whiteSpace=wrap;html=1;" vertex="1" parent="Nm2OPy486o5KQccKr5IJ-5">
          <mxGeometry y="120" width="140" height="30" as="geometry" />
        </mxCell>
        <mxCell id="Nm2OPy486o5KQccKr5IJ-35" value="nip" style="text;strokeColor=none;fillColor=none;align=left;verticalAlign=middle;spacingLeft=4;spacingRight=4;overflow=hidden;points=[[0,0.5],[1,0.5]];portConstraint=eastwest;rotatable=0;whiteSpace=wrap;html=1;" vertex="1" parent="Nm2OPy486o5KQccKr5IJ-5">
          <mxGeometry y="150" width="140" height="30" as="geometry" />
        </mxCell>
        <mxCell id="Nm2OPy486o5KQccKr5IJ-10" value="Pegawai" style="swimlane;fontStyle=0;childLayout=stackLayout;horizontal=1;startSize=30;horizontalStack=0;resizeParent=1;resizeParentMax=0;resizeLast=0;collapsible=1;marginBottom=0;whiteSpace=wrap;html=1;" vertex="1" parent="1">
          <mxGeometry x="340" y="300" width="140" height="180" as="geometry" />
        </mxCell>
        <mxCell id="Nm2OPy486o5KQccKr5IJ-11" value="*nip" style="text;strokeColor=none;fillColor=none;align=left;verticalAlign=middle;spacingLeft=4;spacingRight=4;overflow=hidden;points=[[0,0.5],[1,0.5]];portConstraint=eastwest;rotatable=0;whiteSpace=wrap;html=1;" vertex="1" parent="Nm2OPy486o5KQccKr5IJ-10">
          <mxGeometry y="30" width="140" height="30" as="geometry" />
        </mxCell>
        <mxCell id="Nm2OPy486o5KQccKr5IJ-12" value="nama_pegawai" style="text;strokeColor=none;fillColor=none;align=left;verticalAlign=middle;spacingLeft=4;spacingRight=4;overflow=hidden;points=[[0,0.5],[1,0.5]];portConstraint=eastwest;rotatable=0;whiteSpace=wrap;html=1;" vertex="1" parent="Nm2OPy486o5KQccKr5IJ-10">
          <mxGeometry y="60" width="140" height="30" as="geometry" />
        </mxCell>
        <mxCell id="Nm2OPy486o5KQccKr5IJ-13" value="jabatan_pegawai" style="text;strokeColor=none;fillColor=none;align=left;verticalAlign=middle;spacingLeft=4;spacingRight=4;overflow=hidden;points=[[0,0.5],[1,0.5]];portConstraint=eastwest;rotatable=0;whiteSpace=wrap;html=1;" vertex="1" parent="Nm2OPy486o5KQccKr5IJ-10">
          <mxGeometry y="90" width="140" height="30" as="geometry" />
        </mxCell>
        <mxCell id="Nm2OPy486o5KQccKr5IJ-14" value="gaji_pokok" style="text;strokeColor=none;fillColor=none;align=left;verticalAlign=middle;spacingLeft=4;spacingRight=4;overflow=hidden;points=[[0,0.5],[1,0.5]];portConstraint=eastwest;rotatable=0;whiteSpace=wrap;html=1;" vertex="1" parent="Nm2OPy486o5KQccKr5IJ-10">
          <mxGeometry y="120" width="140" height="30" as="geometry" />
        </mxCell>
        <mxCell id="Nm2OPy486o5KQccKr5IJ-36" value="no_bagian" style="text;strokeColor=none;fillColor=none;align=left;verticalAlign=middle;spacingLeft=4;spacingRight=4;overflow=hidden;points=[[0,0.5],[1,0.5]];portConstraint=eastwest;rotatable=0;whiteSpace=wrap;html=1;" vertex="1" parent="Nm2OPy486o5KQccKr5IJ-10">
          <mxGeometry y="150" width="140" height="30" as="geometry" />
        </mxCell>
        <mxCell id="Nm2OPy486o5KQccKr5IJ-15" style="edgeStyle=orthogonalEdgeStyle;rounded=0;orthogonalLoop=1;jettySize=auto;html=1;endArrow=classic;endFill=1;strokeWidth=1;startArrow=classic;startFill=1;" edge="1" parent="1" source="Nm2OPy486o5KQccKr5IJ-2" target="Nm2OPy486o5KQccKr5IJ-26">
          <mxGeometry relative="1" as="geometry" />
        </mxCell>
        <mxCell id="Nm2OPy486o5KQccKr5IJ-17" style="edgeStyle=orthogonalEdgeStyle;rounded=0;orthogonalLoop=1;jettySize=auto;html=1;startArrow=classic;startFill=1;endArrow=classic;endFill=1;" edge="1" parent="1" source="Nm2OPy486o5KQccKr5IJ-4" target="Nm2OPy486o5KQccKr5IJ-36">
          <mxGeometry relative="1" as="geometry">
            <Array as="points">
              <mxPoint x="70" y="215" />
              <mxPoint x="70" y="460" />
            </Array>
          </mxGeometry>
        </mxCell>
        <mxCell id="Nm2OPy486o5KQccKr5IJ-18" style="edgeStyle=orthogonalEdgeStyle;rounded=0;orthogonalLoop=1;jettySize=auto;html=1;startArrow=classic;startFill=1;endArrow=classic;endFill=1;sourcePerimeterSpacing=0;" edge="1" parent="1" source="Nm2OPy486o5KQccKr5IJ-24" target="Nm2OPy486o5KQccKr5IJ-11">
          <mxGeometry relative="1" as="geometry">
            <Array as="points">
              <mxPoint x="320" y="245" />
              <mxPoint x="320" y="355" />
            </Array>
          </mxGeometry>
        </mxCell>
        <mxCell id="Nm2OPy486o5KQccKr5IJ-20" style="edgeStyle=orthogonalEdgeStyle;rounded=0;orthogonalLoop=1;jettySize=auto;html=1;endArrow=classic;endFill=1;startArrow=classic;startFill=1;" edge="1" parent="1" source="Nm2OPy486o5KQccKr5IJ-35" target="Nm2OPy486o5KQccKr5IJ-11">
          <mxGeometry relative="1" as="geometry">
            <Array as="points">
              <mxPoint x="520" y="260" />
              <mxPoint x="520" y="340" />
            </Array>
          </mxGeometry>
        </mxCell>
        <mxCell id="Nm2OPy486o5KQccKr5IJ-21" value="&lt;font style=&quot;font-size: 20px;&quot;&gt;Memimpin&lt;/font&gt;" style="text;html=1;align=center;verticalAlign=middle;resizable=0;points=[];autosize=1;strokeColor=none;fillColor=none;" vertex="1" parent="1">
          <mxGeometry x="360" y="170" width="120" height="40" as="geometry" />
        </mxCell>
        <mxCell id="Nm2OPy486o5KQccKr5IJ-22" style="edgeStyle=orthogonalEdgeStyle;rounded=0;orthogonalLoop=1;jettySize=auto;html=1;endArrow=classic;endFill=1;startArrow=classic;startFill=1;" edge="1" parent="1" source="Nm2OPy486o5KQccKr5IJ-6" target="Nm2OPy486o5KQccKr5IJ-32">
          <mxGeometry relative="1" as="geometry">
            <Array as="points">
              <mxPoint x="760" y="140" />
              <mxPoint x="760" y="345" />
            </Array>
          </mxGeometry>
        </mxCell>
        <mxCell id="Nm2OPy486o5KQccKr5IJ-25" value="Menangani" style="swimlane;fontStyle=0;childLayout=stackLayout;horizontal=1;startSize=30;horizontalStack=0;resizeParent=1;resizeParentMax=0;resizeLast=0;collapsible=1;marginBottom=0;whiteSpace=wrap;html=1;" vertex="1" parent="1">
          <mxGeometry x="340" y="50" width="140" height="90" as="geometry" />
        </mxCell>
        <mxCell id="Nm2OPy486o5KQccKr5IJ-26" value="no_bagian" style="text;strokeColor=none;fillColor=none;align=left;verticalAlign=middle;spacingLeft=4;spacingRight=4;overflow=hidden;points=[[0,0.5],[1,0.5]];portConstraint=eastwest;rotatable=0;whiteSpace=wrap;html=1;" vertex="1" parent="Nm2OPy486o5KQccKr5IJ-25">
          <mxGeometry y="30" width="140" height="30" as="geometry" />
        </mxCell>
        <mxCell id="Nm2OPy486o5KQccKr5IJ-27" value="no_proyek" style="text;strokeColor=none;fillColor=none;align=left;verticalAlign=middle;spacingLeft=4;spacingRight=4;overflow=hidden;points=[[0,0.5],[1,0.5]];portConstraint=eastwest;rotatable=0;whiteSpace=wrap;html=1;" vertex="1" parent="Nm2OPy486o5KQccKr5IJ-25">
          <mxGeometry y="60" width="140" height="30" as="geometry" />
        </mxCell>
        <mxCell id="Nm2OPy486o5KQccKr5IJ-30" style="edgeStyle=orthogonalEdgeStyle;rounded=0;orthogonalLoop=1;jettySize=auto;html=1;startArrow=classic;startFill=1;" edge="1" parent="1" source="Nm2OPy486o5KQccKr5IJ-27" target="Nm2OPy486o5KQccKr5IJ-6">
          <mxGeometry relative="1" as="geometry" />
        </mxCell>
        <mxCell id="Nm2OPy486o5KQccKr5IJ-31" value="Dikerjakan" style="swimlane;fontStyle=0;childLayout=stackLayout;horizontal=1;startSize=30;horizontalStack=0;resizeParent=1;resizeParentMax=0;resizeLast=0;collapsible=1;marginBottom=0;whiteSpace=wrap;html=1;" vertex="1" parent="1">
          <mxGeometry x="580" y="300" width="140" height="120" as="geometry" />
        </mxCell>
        <mxCell id="Nm2OPy486o5KQccKr5IJ-32" value="*no_proyek" style="text;strokeColor=none;fillColor=none;align=left;verticalAlign=middle;spacingLeft=4;spacingRight=4;overflow=hidden;points=[[0,0.5],[1,0.5]];portConstraint=eastwest;rotatable=0;whiteSpace=wrap;html=1;" vertex="1" parent="Nm2OPy486o5KQccKr5IJ-31">
          <mxGeometry y="30" width="140" height="30" as="geometry" />
        </mxCell>
        <mxCell id="Nm2OPy486o5KQccKr5IJ-33" value="*nip" style="text;strokeColor=none;fillColor=none;align=left;verticalAlign=middle;spacingLeft=4;spacingRight=4;overflow=hidden;points=[[0,0.5],[1,0.5]];portConstraint=eastwest;rotatable=0;whiteSpace=wrap;html=1;" vertex="1" parent="Nm2OPy486o5KQccKr5IJ-31">
          <mxGeometry y="60" width="140" height="30" as="geometry" />
        </mxCell>
        <mxCell id="Nm2OPy486o5KQccKr5IJ-34" value="honor" style="text;strokeColor=none;fillColor=none;align=left;verticalAlign=middle;spacingLeft=4;spacingRight=4;overflow=hidden;points=[[0,0.5],[1,0.5]];portConstraint=eastwest;rotatable=0;whiteSpace=wrap;html=1;" vertex="1" parent="Nm2OPy486o5KQccKr5IJ-31">
          <mxGeometry y="90" width="140" height="30" as="geometry" />
        </mxCell>
        <mxCell id="Nm2OPy486o5KQccKr5IJ-37" style="edgeStyle=orthogonalEdgeStyle;rounded=0;orthogonalLoop=1;jettySize=auto;html=1;startArrow=classic;startFill=1;" edge="1" parent="1" source="Nm2OPy486o5KQccKr5IJ-33" target="Nm2OPy486o5KQccKr5IJ-11">
          <mxGeometry relative="1" as="geometry">
            <Array as="points">
              <mxPoint x="530" y="375" />
              <mxPoint x="530" y="350" />
            </Array>
          </mxGeometry>
        </mxCell>
      </root>
    </mxGraphModel>
  </diagram>
</mxfile>
